<svg width="32" height="32" viewBox="0 0 32 32" fill="none" xmlns="http://www.w3.org/2000/svg">
<rect width="32" height="32" rx="16" fill="#CC1E86"/>
<path d="M21.8333 13.5L20.7916 11.2084L18.4999 10.1667L20.7916 9.12504L21.8333 6.83337L22.8749 9.12504L25.1666 10.1667L22.8749 11.2084L21.8333 13.5ZM21.8333 25.1667L20.7916 22.875L18.4999 21.8334L20.7916 20.7917L21.8333 18.5L22.8749 20.7917L25.1666 21.8334L22.8749 22.875L21.8333 25.1667ZM13.4999 22.6667L11.4166 18.0834L6.83325 16L11.4166 13.9167L13.4999 9.33337L15.5833 13.9167L20.1666 16L15.5833 18.0834L13.4999 22.6667ZM13.4999 18.625L14.3333 16.8334L16.1249 16L14.3333 15.1667L13.4999 13.375L12.6666 15.1667L10.8749 16L12.6666 16.8334L13.4999 18.625Z" fill="white"/>
</svg>
