<svg width="24" height="24" viewBox="0 0 24 24" fill="none" xmlns="http://www.w3.org/2000/svg">
<path d="M6.70702 5.29292C6.51842 5.11076 6.26582 5.00997 6.00362 5.01224C5.74142 5.01452 5.49061 5.11969 5.3052 5.3051C5.11979 5.49051 5.01462 5.74132 5.01235 6.00352C5.01007 6.26571 5.11086 6.51832 5.29302 6.70692L10.586 11.9999L5.29302 17.2929C5.19751 17.3852 5.12133 17.4955 5.06892 17.6175C5.01651 17.7395 4.98892 17.8707 4.98777 18.0035C4.98662 18.1363 5.01192 18.268 5.0622 18.3909C5.11248 18.5138 5.18673 18.6254 5.28062 18.7193C5.37452 18.8132 5.48617 18.8875 5.60907 18.9377C5.73196 18.988 5.86364 19.0133 5.99642 19.0122C6.1292 19.011 6.26042 18.9834 6.38242 18.931C6.50443 18.8786 6.61477 18.8024 6.70702 18.7069L12 13.4139L17.293 18.7069C17.4816 18.8891 17.7342 18.9899 17.9964 18.9876C18.2586 18.9853 18.5094 18.8801 18.6948 18.6947C18.8802 18.5093 18.9854 18.2585 18.9877 17.9963C18.99 17.7341 18.8892 17.4815 18.707 17.2929L13.414 11.9999L18.707 6.70692C18.8892 6.51832 18.99 6.26571 18.9877 6.00352C18.9854 5.74132 18.8802 5.49051 18.6948 5.3051C18.5094 5.11969 18.2586 5.01452 17.9964 5.01224C17.7342 5.00997 17.4816 5.11076 17.293 5.29292L12 10.5859L6.70702 5.29292Z" fill="#94A3B8"/>
</svg>
