<svg width="24" height="24" viewBox="0 0 24 24" fill="none" xmlns="http://www.w3.org/2000/svg">
<path d="M19.6667 4.66675H7C6.73478 4.66675 6.48043 4.7721 6.29289 4.95964C6.10536 5.14718 6 5.40153 6 5.66675V21.6667C6 21.932 6.10536 22.1863 6.29289 22.3739C6.48043 22.5614 6.73478 22.6667 7 22.6667H19.6667C19.9319 22.6667 20.1862 22.5614 20.3738 22.3739C20.5613 22.1863 20.6667 21.932 20.6667 21.6667V5.66675C20.6667 5.40153 20.5613 5.14718 20.3738 4.95964C20.1862 4.7721 19.9319 4.66675 19.6667 4.66675ZM19.3333 21.3334H7.33333V6.00008H19.3333V21.3334Z" fill="#94A3B8"/>
<path d="M17.3334 2.33325C17.3334 2.06804 17.228 1.81368 17.0405 1.62615C16.8529 1.43861 16.5986 1.33325 16.3334 1.33325H3.66669C3.40147 1.33325 3.14712 1.43861 2.95958 1.62615C2.77204 1.81368 2.66669 2.06804 2.66669 2.33325V18.3333C2.66669 18.5985 2.77204 18.8528 2.95958 19.0404C3.14712 19.2279 3.40147 19.3333 3.66669 19.3333H4.00002V2.66659H17.3334V2.33325Z" fill="#94A3B8"/>
</svg>
