<svg width="36" height="36" viewBox="0 0 36 36" fill="none" xmlns="http://www.w3.org/2000/svg">
<rect width="36" height="36" rx="12" fill="#0F5E67"/>
<path d="M18 10C13.5824 10 10 13.5824 10 18C10 22.4176 13.5824 26 18 26V24.0004C16.8135 24.0002 15.6536 23.6483 14.6671 22.989C13.6806 22.3297 12.9118 21.3926 12.4578 20.2964C12.0038 19.2001 11.885 17.9939 12.1166 16.8302C12.3481 15.6664 12.9195 14.5975 13.7585 13.7585C14.5975 12.9195 15.6664 12.3481 16.8302 12.1166C17.9939 11.885 19.2001 12.0038 20.2964 12.4578C21.3926 12.9118 22.3297 13.6806 22.989 14.6671C23.6483 15.6536 24.0002 16.8135 24.0004 18H26C26 13.5824 22.4176 10 18 10Z" fill="white"/>
</svg>
