<svg width="24" height="24" viewBox="0 0 24 24" fill="none" xmlns="http://www.w3.org/2000/svg">
<path d="M12.5205 0.946499C12.634 0.745542 12.8066 0.584358 13.0148 0.484807C13.223 0.385257 13.4568 0.352159 13.6845 0.39L14.0415 0.45C14.7189 0.562808 15.3648 0.817464 15.937 1.19729C16.5091 1.57711 16.9946 2.07352 17.3615 2.65401C17.7284 3.2345 17.9686 3.88597 18.0662 4.56573C18.1638 5.24549 18.1167 5.93821 17.928 6.5985L17.241 9H18.2385C18.9963 8.99999 19.7436 9.17662 20.4211 9.51587C21.0987 9.85512 21.6879 10.3476 22.1418 10.9543C22.5958 11.5611 22.9021 12.2652 23.0364 13.011C23.1707 13.7567 23.1293 14.5235 22.9155 15.2505L21.213 21.039C20.9626 21.8902 20.4445 22.638 19.7355 23.1714C19.0264 23.7048 18.1643 23.9954 17.277 24H9.85501C8.68501 23.9955 7.54801 23.625 6.60301 22.947C6.36019 23.2717 6.04542 23.5358 5.68342 23.7185C5.32141 23.9012 4.922 23.9976 4.51651 24H2.60851C1.91518 23.9956 1.25173 23.7172 0.763013 23.2253C0.274293 22.7335 -2.25312e-06 22.0683 1.14441e-05 21.375V11.625C1.14441e-05 10.9288 0.276573 10.2611 0.768856 9.76884C1.26114 9.27656 1.92882 9 2.62501 9H7.75051C7.81676 8.99983 7.88178 8.98211 7.93895 8.94865C7.99613 8.91519 8.04342 8.86717 8.07601 8.8095L12.5205 0.946499ZM7.12501 20.4735L7.71901 20.9685C8.32549 21.4735 9.08978 21.7501 9.87901 21.75H17.256C17.6609 21.75 18.0548 21.6189 18.379 21.3764C18.7032 21.1338 18.9402 20.7929 19.0545 20.4045L20.757 14.616C20.8722 14.2245 20.8945 13.8116 20.8223 13.41C20.75 13.0084 20.585 12.6291 20.3406 12.3024C20.0961 11.9757 19.7788 11.7104 19.4139 11.5277C19.049 11.3451 18.6466 11.25 18.2385 11.25L15.75 11.25C15.5759 11.25 15.4042 11.2095 15.2484 11.1318C15.0925 11.0542 14.9569 10.9414 14.8521 10.8024C14.7472 10.6634 14.6761 10.502 14.6442 10.3308C14.6124 10.1596 14.6207 9.98341 14.6685 9.816L15.765 5.979C15.9506 5.32921 15.8784 4.63289 15.5635 4.03497C15.2486 3.43704 14.7153 2.98359 14.0745 2.769L10.035 9.9165C9.80636 10.3211 9.47438 10.6578 9.07301 10.892C8.67164 11.1263 8.21526 11.2499 7.75051 11.25H7.12501L7.12501 20.4735ZM4.87501 11.25H2.62501C2.52556 11.25 2.43017 11.2895 2.35985 11.3598C2.28952 11.4302 2.25001 11.5255 2.25001 11.625V21.375C2.25001 21.4745 2.28952 21.5698 2.35985 21.6402C2.43017 21.7105 2.52556 21.75 2.62501 21.75H4.50001C4.59947 21.75 4.69485 21.7105 4.76518 21.6402C4.8355 21.5698 4.87501 21.4745 4.87501 21.375V11.25Z" fill="#94A3B8"/>
</svg>
