<svg width="16" height="16" viewBox="0 0 16 16" fill="none" xmlns="http://www.w3.org/2000/svg">
<path d="M10 9.33333L9.34267 9.44267C9.3268 9.3472 9.3319 9.24943 9.35762 9.15614C9.38334 9.06285 9.42907 8.97627 9.49161 8.90243C9.55416 8.82859 9.63204 8.76925 9.71983 8.72854C9.80762 8.68782 9.90323 8.66671 10 8.66667V9.33333ZM2.66667 9.33333V10C2.48986 10 2.32029 9.92976 2.19526 9.80474C2.07024 9.67971 2 9.51014 2 9.33333H2.66667ZM4 2H11.5733V3.33333H4V2ZM12.3733 10H10V8.66667H12.3733V10ZM10.658 9.224L11.1947 12.4473L9.88 12.6667L9.34267 9.44267L10.658 9.224ZM9.88 14H9.73733V12.6667H9.88V14ZM7.518 12.8127L5.84133 10.2967L6.95067 9.55667L8.628 12.0727L7.518 12.8127ZM5.28667 10H2.66667V8.66667H5.28667V10ZM2 9.33333V4H3.33333V9.33333H2ZM13.5347 3.608L14.3347 7.608L13.028 7.86933L12.228 3.86933L13.5347 3.608ZM5.84133 10.2967C5.78043 10.2054 5.69795 10.1306 5.60119 10.0788C5.50443 10.0271 5.39639 9.99998 5.28667 10V8.66667C5.61591 8.66669 5.94006 8.748 6.23034 8.90337C6.52061 9.05874 6.76805 9.28338 6.95067 9.55733L5.84133 10.2967ZM11.1947 12.4473C11.2265 12.6383 11.2164 12.8339 11.165 13.0206C11.1136 13.2073 11.0222 13.3805 10.8971 13.5283C10.772 13.676 10.6162 13.7948 10.4405 13.8762C10.2649 13.9577 10.0736 13.9999 9.88 14V12.6667L11.1947 12.4473ZM12.3733 8.66667C12.472 8.66671 12.5694 8.64485 12.6586 8.60268C12.7478 8.56051 12.8265 8.49907 12.889 8.42279C12.9516 8.34652 12.9965 8.25731 13.0204 8.1616C13.0443 8.06589 13.0473 7.96607 13.028 7.86933L14.3347 7.608C14.3927 7.8981 14.3856 8.19745 14.3139 8.48448C14.2422 8.77151 14.1078 9.03906 13.9202 9.26786C13.7327 9.49666 13.4967 9.681 13.2294 9.80761C12.962 9.93421 12.6698 9.99992 12.374 10L12.3733 8.66667ZM11.5733 2C12.0357 1.99997 12.4839 2.16018 12.8415 2.45335C13.1991 2.74653 13.444 3.15456 13.5347 3.608L12.228 3.86933C12.1978 3.71804 12.116 3.58191 11.9966 3.48417C11.8772 3.38643 11.7276 3.33312 11.5733 3.33333V2ZM9.73733 14C9.29836 14 8.86618 13.8916 8.47914 13.6845C8.09211 13.4774 7.76152 13.1779 7.518 12.8127L8.628 12.0727C8.74972 12.2553 8.91466 12.4051 9.10819 12.5088C9.30171 12.6124 9.51782 12.6666 9.73733 12.6667V14ZM4 3.33333C3.82319 3.33333 3.65362 3.40357 3.5286 3.5286C3.40357 3.65362 3.33333 3.82319 3.33333 4H2C2 3.46957 2.21071 2.96086 2.58579 2.58579C2.96086 2.21071 3.46957 2 4 2V3.33333Z" fill="#94A3B8"/>
<path d="M5.33337 9.33341V2.66675" stroke="#94A3B8" stroke-width="1.33333"/>
</svg>
