<svg width="24" height="24" viewBox="0 0 24 24" fill="none" xmlns="http://www.w3.org/2000/svg">
<path d="M11.4795 23.0535C11.366 23.2545 11.1934 23.4156 10.9852 23.5152C10.777 23.6147 10.5432 23.6478 10.3155 23.61L9.95849 23.55C9.28108 23.4372 8.63515 23.1825 8.06301 22.8027C7.49088 22.4229 7.00544 21.9265 6.63851 21.346C6.27158 20.7655 6.03143 20.114 5.9338 19.4343C5.83617 18.7545 5.88326 18.0618 6.07199 17.4015L6.75899 15H5.76149C5.00374 15 4.25642 14.8234 3.57885 14.4841C2.90129 14.1449 2.31213 13.6524 1.85816 13.0457C1.40418 12.4389 1.09789 11.7348 0.96359 10.989C0.829292 10.2433 0.870687 9.47646 1.08449 8.7495L2.78699 2.961C3.03735 2.10978 3.55551 1.36197 4.26455 0.828566C4.97359 0.295163 5.83572 0.00459882 6.72299 0H14.145C15.315 0.0045 16.452 0.375 17.397 1.053C17.6398 0.728251 17.9546 0.464173 18.3166 0.281478C18.6786 0.0987827 19.078 0.00243794 19.4835 0L21.3915 0C22.0848 0.00435816 22.7483 0.282843 23.237 0.774654C23.7257 1.26647 24 1.93166 24 2.625V12.375C24 13.0712 23.7234 13.7389 23.2311 14.2312C22.7389 14.7234 22.0712 15 21.375 15H16.2495C16.1832 15.0002 16.1182 15.0179 16.061 15.0514C16.0039 15.0848 15.9566 15.1328 15.924 15.1905L11.4795 23.0535ZM16.875 3.5265L16.281 3.0315C15.6745 2.52646 14.9102 2.24993 14.121 2.25H6.74399C6.33913 2.25004 5.94516 2.38112 5.62097 2.62365C5.29679 2.86618 5.05982 3.20712 4.94549 3.5955L3.24299 9.384C3.1278 9.77547 3.10546 10.1884 3.17775 10.59C3.25004 10.9916 3.41497 11.3709 3.65943 11.6976C3.9039 12.0243 4.22118 12.2896 4.58607 12.4723C4.95096 12.6549 5.35342 12.75 5.76149 12.75H8.24999C8.42409 12.75 8.59581 12.7905 8.75163 12.8682C8.90745 12.9458 9.04312 13.0586 9.14795 13.1976C9.25278 13.3366 9.32393 13.498 9.35577 13.6692C9.38762 13.8404 9.37931 14.0166 9.33149 14.184L8.23499 18.021C8.04941 18.6708 8.12158 19.3671 8.43646 19.965C8.75135 20.563 9.2847 21.0164 9.92549 21.231L13.965 14.0835C14.1936 13.6789 14.5256 13.3422 14.927 13.108C15.3284 12.8737 15.7847 12.7501 16.2495 12.75H16.875V3.5265ZM19.125 12.75H21.375C21.4744 12.75 21.5698 12.7105 21.6402 12.6402C21.7105 12.5698 21.75 12.4745 21.75 12.375V2.625C21.75 2.52554 21.7105 2.43016 21.6402 2.35984C21.5698 2.28951 21.4744 2.25 21.375 2.25H19.5C19.4005 2.25 19.3051 2.28951 19.2348 2.35984C19.1645 2.43016 19.125 2.52554 19.125 2.625V12.75Z" fill="#94A3B8"/>
</svg>
