<svg width="24" height="24" viewBox="0 0 24 24" fill="none" xmlns="http://www.w3.org/2000/svg">
<rect x="0.5" y="0.5" width="23" height="23" rx="11.5" stroke="white"/>
<path d="M12 12C11.3583 12 10.809 11.7716 10.3521 11.3146C9.89515 10.8577 9.66668 10.3084 9.66668 9.66671C9.66668 9.02504 9.89515 8.47574 10.3521 8.01879C10.809 7.56185 11.3583 7.33337 12 7.33337C12.6417 7.33337 13.191 7.56185 13.6479 8.01879C14.1049 8.47574 14.3333 9.02504 14.3333 9.66671C14.3333 10.3084 14.1049 10.8577 13.6479 11.3146C13.191 11.7716 12.6417 12 12 12V12M7.33334 16.6667V15.0334C7.33334 14.7028 7.41841 14.399 7.58855 14.1219C7.75869 13.8448 7.98473 13.6334 8.26668 13.4875C8.86945 13.1862 9.48195 12.9601 10.1042 12.8094C10.7264 12.6587 11.3583 12.5834 12 12.5834C12.6417 12.5834 13.2736 12.6587 13.8958 12.8094C14.5181 12.9601 15.1306 13.1862 15.7333 13.4875C16.0153 13.6334 16.2413 13.8448 16.4115 14.1219C16.5816 14.399 16.6667 14.7028 16.6667 15.0334V16.6667H7.33334V16.6667M8.50001 15.5H15.5V15.0334C15.5 14.9264 15.4733 14.8292 15.4198 14.7417C15.3663 14.6542 15.2958 14.5862 15.2083 14.5375C14.6833 14.275 14.1535 14.0782 13.6188 13.9469C13.084 13.8157 12.5445 13.75 12 13.75C11.4556 13.75 10.916 13.8157 10.3813 13.9469C9.84654 14.0782 9.31668 14.275 8.79168 14.5375C8.70418 14.5862 8.63369 14.6542 8.58022 14.7417C8.52675 14.8292 8.50001 14.9264 8.50001 15.0334V15.5V15.5M12 10.8334C12.3208 10.8334 12.5955 10.7191 12.824 10.4907C13.0524 10.2622 13.1667 9.98754 13.1667 9.66671C13.1667 9.34587 13.0524 9.07122 12.824 8.84275C12.5955 8.61428 12.3208 8.50004 12 8.50004C11.6792 8.50004 11.4045 8.61428 11.1761 8.84275C10.9476 9.07122 10.8333 9.34587 10.8333 9.66671C10.8333 9.98754 10.9476 10.2622 11.1761 10.4907C11.4045 10.7191 11.6792 10.8334 12 10.8334V10.8334M12 9.66671V9.66671V9.66671V9.66671V9.66671V9.66671V9.66671V9.66671V9.66671V9.66671M12 15.5V15.5V15.5V15.5V15.5V15.5V15.5V15.5V15.5V15.5V15.5V15.5V15.5" fill="white"/>
</svg>
