<svg width="24" height="24" viewBox="0 0 24 24" fill="none" xmlns="http://www.w3.org/2000/svg">
<rect width="24" height="24" rx="12" fill="#EE21AF" fill-opacity="0.2"/>
<rect x="0.5" y="0.5" width="23" height="23" rx="11.5" stroke="#EE21AF" stroke-opacity="0.4"/>
<path d="M11.9999 11.9999C11.3583 11.9999 10.8089 11.7714 10.352 11.3145C9.89506 10.8576 9.66659 10.3083 9.66659 9.66659C9.66659 9.02492 9.89506 8.47561 10.352 8.01867C10.8089 7.56172 11.3583 7.33325 11.9999 7.33325C12.6416 7.33325 13.1909 7.56172 13.6478 8.01867C14.1048 8.47561 14.3333 9.02492 14.3333 9.66659C14.3333 10.3083 14.1048 10.8576 13.6478 11.3145C13.1909 11.7714 12.6416 11.9999 11.9999 11.9999V11.9999M7.33325 16.6666V15.0333C7.33325 14.7027 7.41832 14.3989 7.58846 14.1218C7.7586 13.8447 7.98464 13.6333 8.26659 13.4874C8.86936 13.186 9.48186 12.96 10.1041 12.8093C10.7263 12.6586 11.3583 12.5833 11.9999 12.5833C12.6416 12.5833 13.2735 12.6586 13.8958 12.8093C14.518 12.96 15.1305 13.186 15.7333 13.4874C16.0152 13.6333 16.2412 13.8447 16.4114 14.1218C16.5815 14.3989 16.6666 14.7027 16.6666 15.0333V16.6666H7.33325V16.6666M8.49992 15.4999H15.4999V15.0333C15.4999 14.9263 15.4732 14.8291 15.4197 14.7416C15.3662 14.6541 15.2958 14.586 15.2083 14.5374C14.6833 14.2749 14.1534 14.078 13.6187 13.9468C13.0839 13.8155 12.5444 13.7499 11.9999 13.7499C11.4555 13.7499 10.9159 13.8155 10.3812 13.9468C9.84645 14.078 9.31659 14.2749 8.79159 14.5374C8.70409 14.586 8.6336 14.6541 8.58013 14.7416C8.52665 14.8291 8.49992 14.9263 8.49992 15.0333V15.4999V15.4999M11.9999 10.8333C12.3208 10.8333 12.5954 10.719 12.8239 10.4905C13.0523 10.2621 13.1666 9.98742 13.1666 9.66659C13.1666 9.34575 13.0523 9.0711 12.8239 8.84263C12.5954 8.61415 12.3208 8.49992 11.9999 8.49992C11.6791 8.49992 11.4044 8.61415 11.176 8.84263C10.9475 9.0711 10.8333 9.34575 10.8333 9.66659C10.8333 9.98742 10.9475 10.2621 11.176 10.4905C11.4044 10.719 11.6791 10.8333 11.9999 10.8333V10.8333M11.9999 9.66659V9.66659V9.66659V9.66659V9.66659V9.66659V9.66659V9.66659V9.66659V9.66659M11.9999 15.4999V15.4999V15.4999V15.4999V15.4999V15.4999V15.4999V15.4999V15.4999V15.4999V15.4999V15.4999V15.4999" fill="#EE21AF"/>
</svg>
