<svg width="32" height="32" viewBox="0 0 32 32" fill="none" xmlns="http://www.w3.org/2000/svg">
<rect width="32" height="32" rx="16" fill="#EE21AF" fill-opacity="0.2"/>
<rect x="0.5" y="0.5" width="31" height="31" rx="15.5" stroke="#EE21AF" stroke-opacity="0.4"/>
<path d="M16 15.9999C15.3584 15.9999 14.8091 15.7714 14.3521 15.3145C13.8952 14.8576 13.6667 14.3083 13.6667 13.6666C13.6667 13.0249 13.8952 12.4756 14.3521 12.0187C14.8091 11.5617 15.3584 11.3333 16 11.3333C16.6417 11.3333 17.191 11.5617 17.648 12.0187C18.1049 12.4756 18.3334 13.0249 18.3334 13.6666C18.3334 14.3083 18.1049 14.8576 17.648 15.3145C17.191 15.7714 16.6417 15.9999 16 15.9999ZM11.3334 20.6666V19.0333C11.3334 18.7027 11.4184 18.3989 11.5886 18.1218C11.7587 17.8447 11.9848 17.6333 12.2667 17.4874C12.8695 17.186 13.482 16.96 14.1042 16.8093C14.7264 16.6586 15.3584 16.5833 16 16.5833C16.6417 16.5833 17.2737 16.6586 17.8959 16.8093C18.5181 16.96 19.1306 17.186 19.7334 17.4874C20.0153 17.6333 20.2414 17.8447 20.4115 18.1218C20.5816 18.3989 20.6667 18.7027 20.6667 19.0333V20.6666H11.3334ZM12.5 19.4999H19.5V19.0333C19.5 18.9263 19.4733 18.8291 19.4198 18.7416C19.3664 18.6541 19.2959 18.586 19.2084 18.5374C18.6834 18.2749 18.1535 18.078 17.6188 17.9468C17.0841 17.8155 16.5445 17.7499 16 17.7499C15.4556 17.7499 14.916 17.8155 14.3813 17.9468C13.8466 18.078 13.3167 18.2749 12.7917 18.5374C12.7042 18.586 12.6337 18.6541 12.5802 18.7416C12.5268 18.8291 12.5 18.9263 12.5 19.0333V19.4999ZM16 14.8333C16.3209 14.8333 16.5955 14.719 16.824 14.4905C17.0525 14.2621 17.1667 13.9874 17.1667 13.6666C17.1667 13.3458 17.0525 13.0711 16.824 12.8426C16.5955 12.6142 16.3209 12.4999 16 12.4999C15.6792 12.4999 15.4046 12.6142 15.1761 12.8426C14.9476 13.0711 14.8334 13.3458 14.8334 13.6666C14.8334 13.9874 14.9476 14.2621 15.1761 14.4905C15.4046 14.719 15.6792 14.8333 16 14.8333Z" fill="#EE21AF"/>
</svg>
